<svg xmlns="http://www.w3.org/2000/svg" viewBox="0 0 640 420" role="img" aria-labelledby="t d"><title id="t">Kunststof kozijnprofiel</title><desc id="d">Gestileerde driedimensionale doorsnede van een kunststof kozijnprofiel met meerdere kamers, glas en afdichting.</desc><defs><linearGradient id="bg" x1="0" y1="0" x2="1" y2="1"><stop stop-color="#f8fafb"/><stop offset="1" stop-color="#e8edf0"/></linearGradient><linearGradient id="face" x1="0" y1="0" x2="1" y2="1"><stop stop-color="#555c60"/><stop offset=".5" stop-color="#353b3f"/><stop offset="1" stop-color="#24292c"/></linearGradient><linearGradient id="side" x1="0" y1="0" x2="1" y2="1"><stop stop-color="#252b2f"/><stop offset="1" stop-color="#111619"/></linearGradient><linearGradient id="glass" x1="0" y1="0" x2="1" y2="1"><stop stop-color="#e8f9ff" stop-opacity=".92"/><stop offset="1" stop-color="#93c7d6" stop-opacity=".62"/></linearGradient><filter id="s" x="-30%" y="-30%" width="160%" height="180%"><feDropShadow dx="0" dy="18" stdDeviation="15" flood-opacity=".22"/></filter></defs><rect width="640" height="420" rx="28" fill="url(#bg)"/><g filter="url(#s)" transform="translate(74 52)"><path d="M82 58 352 28 474 98 204 128Z" fill="url(#face)"/><path d="M204 128 474 98 474 274 204 304Z" fill="url(#side)"/><path d="M82 58 204 128 204 304 82 234Z" fill="#4b5256"/><path d="M145 104 342 82 405 118 208 141Z" fill="#1a1f22"/><path d="M208 141 405 118 405 228 208 250Z" fill="#0d1113"/><path d="M160 117 329 98 385 130 216 149Z" fill="url(#glass)" stroke="#cde6ee" stroke-width="5"/><path d="M216 149 385 130 385 211 216 230Z" fill="url(#glass)" opacity=".88"/><g fill="#111719" stroke="#697176" stroke-width="3"><path d="M102 88 137 108 137 226 102 206Z"/><path d="M150 116 179 133 179 250 150 233Z"/><path d="M218 151 247 148 247 246 218 249Z"/><path d="M266 145 296 142 296 240 266 244Z"/></g><path d="M195 128 210 136 210 263 195 255Z" fill="#0b0d0e"/><path d="M402 116 419 112 419 230 402 233Z" fill="#0a0d0f"/><path d="M108 68 357 41 454 97" fill="none" stroke="#7e8589" stroke-width="6" opacity=".65"/></g></svg>